<?xml version="1.0" encoding="iso-8859-1"?>
<!-- Generator: Adobe Illustrator 19.0.0, SVG Export Plug-In . SVG Version: 6.00 Build 0)  -->
<svg version="1.1" id="Layer_1" xmlns="http://www.w3.org/2000/svg" xmlns:xlink="http://www.w3.org/1999/xlink" x="0px" y="0px"
	 viewBox="0 0 370.018 370.018" style="enable-background:new 0 0 370.018 370.018;" xml:space="preserve">
<g>
	<path style="fill:#EAB355;" d="M289.255,92.317C282.971,40.376,238.616,0,185.008,0S87.045,40.376,80.761,92.317
		c-17.858,5.972-30.767,22.855-30.767,42.696c0,24.815,20.189,45.004,45.004,45.004h7.179l68.817,180.348
		c2.218,5.813,7.794,9.652,14.015,9.652s11.797-3.84,14.015-9.652l68.816-180.348h7.179c24.815,0,45.004-20.188,45.004-45.004
		C320.021,115.173,307.113,98.289,289.255,92.317z"/>
	<path style="fill:#DA8CBA;" d="M289.255,92.317C282.971,40.376,238.616,0,185.008,0S87.045,40.376,80.761,92.317
		c-17.858,5.972-30.767,22.855-30.767,42.696c0,24.815,20.189,45.004,45.004,45.004h7.179h16.055h16.055h50.722h50.722h16.055
		h16.055h7.179c24.815,0,45.004-20.188,45.004-45.004C320.021,115.173,307.113,98.289,289.255,92.317z"/>
	<path style="fill:#EAB355;" d="M251.784,180.018h-16.055h-50.722h-50.722H118.23h-16.055l68.817,180.348
		c2.218,5.813,7.794,9.652,14.015,9.652s11.797-3.84,14.015-9.652l68.816-180.348L251.784,180.018L251.784,180.018z"/>
	<path style="fill:#D271A8;" d="M134.286,180.018h50.722V0C131.399,0,87.045,40.376,80.761,92.317
		c-17.858,5.972-30.767,22.855-30.767,42.696c0,24.815,20.189,45.004,45.004,45.004h7.179h16.055h16.054V180.018z"/>
	<path style="fill:#E29229;" d="M134.286,180.018h-16.055h-16.055l68.817,180.348c2.218,5.813,7.794,9.652,14.015,9.652v-190
		L134.286,180.018L134.286,180.018z"/>
</g>
<g>
</g>
<g>
</g>
<g>
</g>
<g>
</g>
<g>
</g>
<g>
</g>
<g>
</g>
<g>
</g>
<g>
</g>
<g>
</g>
<g>
</g>
<g>
</g>
<g>
</g>
<g>
</g>
<g>
</g>
</svg>
